<svg id="Layer_1" data-name="Layer 1" xmlns="http://www.w3.org/2000/svg" viewBox="0 0 390 336"><defs><style>.cls-1{fill:#353535;}.cls-2{fill:#686868;}.cls-3{fill:#b4b4b4;}.cls-4{fill:#e6e6e6;}.cls-5{fill:#505050;}.cls-6{fill:#9a9a9a;}.cls-7{fill:#ccc;}</style></defs><title>logo</title><g id="logo_negro" data-name="logo negro"><g id="t13"><path class="cls-1" d="M151.15,86c-1.27,0-1.78-1-1.15-2.09L193.78,8c.63-1.09,1.67-1.12,2.3,0l43.78,75.9c.63,1.1.14,2.1-1.16,2.1Z"/></g><g id="t12"><path class="cls-2" d="M103.1,169c-1.26,0-1.78-.91-1.15-2l43.78-75.83a1.22,1.22,0,0,1,2.3,0L191.81,167c.63,1.1.11,2-1.15,2Z"/></g><g id="t11"><path class="cls-3" d="M55.3,252c-1.27,0-1.79-.9-1.16-2l43.78-75.82a1.22,1.22,0,0,1,2.3,0L144,250c.64,1.1.12,2-1.15,2Z"/></g><g id="t10"><path class="cls-4" d="M7,336a1.26,1.26,0,0,1-1.15-2.07L49.6,258.07c.64-1.09,1.67-1.11,2.3,0L95.68,334c.64,1.1.12,2.06-1.15,2.06Z"/></g><g id="t9"><path class="cls-5" d="M196.08,165.53a1.21,1.21,0,0,1-2.3,0L150,89.85c-.63-1.09-.12-1.85,1.15-1.85H238.7c1.27,0,1.79.76,1.16,1.85Z"/></g><g id="t8"><path class="cls-6" d="M147.74,248.62a1.21,1.21,0,0,1-2.3,0L101.66,172.9c-.63-1.1-.11-1.9,1.16-1.9h87.55c1.27,0,1.78.8,1.15,1.9Z"/></g><g id="t7"><path class="cls-7" d="M99.36,331.85a1.21,1.21,0,0,1-2.3,0L53.28,256c-.63-1.09-.11-2,1.15-2H142c1.27,0,1.79.92,1.16,2Z"/></g><g id="t5"><path class="cls-2" d="M286.61,169c1.27,0,1.79-.91,1.16-2L244,91.16a1.22,1.22,0,0,0-2.3,0L197.91,167c-.63,1.1-.11,2,1.15,2Z"/></g><g id="t4"><path class="cls-3" d="M334.42,252c1.27,0,1.79-.9,1.16-2L291.8,174.18a1.22,1.22,0,0,0-2.3,0L245.72,250c-.64,1.1-.12,2,1.15,2Z"/></g><g id="t3"><path class="cls-4" d="M383,336c1.27,0,1.79-.9,1.16-2L340.4,258.18a1.21,1.21,0,0,0-2.3,0L294.32,334c-.63,1.1-.12,2,1.15,2Z"/></g><g id="t2"><path class="cls-6" d="M241.83,248.62a1.21,1.21,0,0,0,2.3,0l43.78-75.72c.63-1.1.12-1.9-1.15-1.9H199.21c-1.27,0-1.79.8-1.16,1.9Z"/></g><g id="t1"><path class="cls-7" d="M289.78,332.14a1.22,1.22,0,0,0,1.55.76,1.2,1.2,0,0,0,.76-.76l43.77-76c.64-1.1.12-2.16-1.15-2.16H247.16c-1.27,0-1.79,1.06-1.15,2.16Z"/></g><g id="t3-2"><path class="cls-4" d="M151.15,254c-1.27,0-1.78,1.07-1.15,2.16l43.78,75.91c.63,1.1,1.67,1.14,2.3,0l43.78-76A1.31,1.31,0,0,0,238.7,254Z"/></g></g></svg>